<?xml version="1.0" standalone="no"?><svg xmlns:xlink="http://www.w3.org/1999/xlink" xmlns="http://www.w3.org/2000/svg" viewBox="0 0 1100 990.0039275121611" preserveAspectRatio="xMaxYMax slice"><g transform="scale(1.3543145383203299)"><rect x="0" y="0" width="812.2222222222223" height="731" fill="#ffffff"/><g transform="translate(0,0) scale(4.061) rotate(0)"><rect width="20" height="2" fill="#fefefe"/><rect y="4" width="20" height="2" fill="#fefefe"/><rect y="8" width="20" height="2" fill="#fefefe"/><rect y="12" width="20" height="2" fill="#fefefe"/><rect y="16" width="20" height="2" fill="#fefefe"/></g><g transform="translate(81.22,0) scale(4.061) rotate(0)"><rect width="20" height="2" fill="#cacaca"/><rect y="4" width="20" height="2" fill="#cacaca"/><rect y="8" width="20" height="2" fill="#cacaca"/><rect y="12" width="20" height="2" fill="#cacaca"/><rect y="16" width="20" height="2" fill="#cacaca"/></g><g transform="translate(162.44,0) scale(4.061) rotate(0)"><rect width="2" height="20" fill="#f7f7f8"/><rect x="4" width="2" height="20" fill="#f7f7f8"/><rect x="8" width="2" height="20" fill="#f7f7f8"/><rect x="12" width="2" height="20" fill="#f7f7f8"/><rect x="16" width="2" height="20" fill="#f7f7f8"/></g><g transform="translate(243.67,0) scale(4.061) rotate(0)"><rect width="2" height="20" fill="#a4a4a4"/><rect x="4" width="2" height="20" fill="#a4a4a4"/><rect x="8" width="2" height="20" fill="#a4a4a4"/><rect x="12" width="2" height="20" fill="#a4a4a4"/><rect x="16" width="2" height="20" fill="#a4a4a4"/></g><g transform="translate(324.89,0) scale(4.061) rotate(0)"><rect width="20" height="2" fill="#8c8c8c"/><rect y="4" width="20" height="2" fill="#8c8c8c"/><rect y="8" width="20" height="2" fill="#8c8c8c"/><rect y="12" width="20" height="2" fill="#8c8c8c"/><rect y="16" width="20" height="2" fill="#8c8c8c"/></g><g transform="translate(406.11,0) scale(4.061) rotate(0)"><rect width="20" height="2" fill="#949494"/><rect y="4" width="20" height="2" fill="#949494"/><rect y="8" width="20" height="2" fill="#949494"/><rect y="12" width="20" height="2" fill="#949494"/><rect y="16" width="20" height="2" fill="#949494"/></g><g transform="translate(487.33,0) scale(4.061) rotate(0)"><rect width="2" height="20" fill="#cdcfd2"/><rect x="4" width="2" height="20" fill="#cdcfd2"/><rect x="8" width="2" height="20" fill="#cdcfd2"/><rect x="12" width="2" height="20" fill="#cdcfd2"/><rect x="16" width="2" height="20" fill="#cdcfd2"/></g><g transform="translate(568.56,0) scale(4.061) rotate(0)"><rect width="2" height="20" fill="#a7a7a7"/><rect x="4" width="2" height="20" fill="#a7a7a7"/><rect x="8" width="2" height="20" fill="#a7a7a7"/><rect x="12" width="2" height="20" fill="#a7a7a7"/><rect x="16" width="2" height="20" fill="#a7a7a7"/></g><g transform="translate(649.78,0) scale(4.061) rotate(0)"><rect width="20" height="2" fill="#dedede"/><rect y="4" width="20" height="2" fill="#dedede"/><rect y="8" width="20" height="2" fill="#dedede"/><rect y="12" width="20" height="2" fill="#dedede"/><rect y="16" width="20" height="2" fill="#dedede"/></g><g transform="translate(731,0) scale(4.061) rotate(0)"><rect width="2" height="20" fill="#adb0b5"/><rect x="4" width="2" height="20" fill="#adb0b5"/><rect x="8" width="2" height="20" fill="#adb0b5"/><rect x="12" width="2" height="20" fill="#adb0b5"/><rect x="16" width="2" height="20" fill="#adb0b5"/></g><g transform="translate(0,81.22) scale(4.061) rotate(0)"><rect width="2" height="20" fill="#919191"/><rect x="4" width="2" height="20" fill="#919191"/><rect x="8" width="2" height="20" fill="#919191"/><rect x="12" width="2" height="20" fill="#919191"/><rect x="16" width="2" height="20" fill="#919191"/></g><g transform="translate(81.22,81.22) scale(4.061) rotate(0)"><rect width="2" height="20" fill="#969696"/><rect x="4" width="2" height="20" fill="#969696"/><rect x="8" width="2" height="20" fill="#969696"/><rect x="12" width="2" height="20" fill="#969696"/><rect x="16" width="2" height="20" fill="#969696"/></g><g transform="translate(162.44,81.22) scale(4.061) rotate(0)"><rect width="2" height="20" fill="#c6c8cb"/><rect x="4" width="2" height="20" fill="#c6c8cb"/><rect x="8" width="2" height="20" fill="#c6c8cb"/><rect x="12" width="2" height="20" fill="#c6c8cb"/><rect x="16" width="2" height="20" fill="#c6c8cb"/></g><g transform="translate(243.67,81.22) scale(4.061) rotate(0)"><rect width="20" height="2" fill="#8e8e8e"/><rect y="4" width="20" height="2" fill="#8e8e8e"/><rect y="8" width="20" height="2" fill="#8e8e8e"/><rect y="12" width="20" height="2" fill="#8e8e8e"/><rect y="16" width="20" height="2" fill="#8e8e8e"/></g><g transform="translate(324.89,81.22) scale(4.061) rotate(0)"><rect width="2" height="20" fill="#adb0b5"/><rect x="4" width="2" height="20" fill="#adb0b5"/><rect x="8" width="2" height="20" fill="#adb0b5"/><rect x="12" width="2" height="20" fill="#adb0b5"/><rect x="16" width="2" height="20" fill="#adb0b5"/></g><g transform="translate(406.11,81.22) scale(4.061) rotate(0)"><rect width="20" height="2" fill="#b7b9be"/><rect y="4" width="20" height="2" fill="#b7b9be"/><rect y="8" width="20" height="2" fill="#b7b9be"/><rect y="12" width="20" height="2" fill="#b7b9be"/><rect y="16" width="20" height="2" fill="#b7b9be"/></g><g transform="translate(487.33,81.22) scale(4.061) rotate(0)"><rect width="2" height="20" fill="#e1e2e4"/><rect x="4" width="2" height="20" fill="#e1e2e4"/><rect x="8" width="2" height="20" fill="#e1e2e4"/><rect x="12" width="2" height="20" fill="#e1e2e4"/><rect x="16" width="2" height="20" fill="#e1e2e4"/></g><g transform="translate(568.56,81.22) scale(4.061) rotate(0)"><rect width="20" height="2" fill="#939393"/><rect y="4" width="20" height="2" fill="#939393"/><rect y="8" width="20" height="2" fill="#939393"/><rect y="12" width="20" height="2" fill="#939393"/><rect y="16" width="20" height="2" fill="#939393"/></g><g transform="translate(649.78,81.22) scale(4.061) rotate(0)"><rect width="20" height="2" fill="#c6c8cc"/><rect y="4" width="20" height="2" fill="#c6c8cc"/><rect y="8" width="20" height="2" fill="#c6c8cc"/><rect y="12" width="20" height="2" fill="#c6c8cc"/><rect y="16" width="20" height="2" fill="#c6c8cc"/></g><g transform="translate(731,81.22) scale(4.061) rotate(0)"><rect width="2" height="20" fill="#f7f7f7"/><rect x="4" width="2" height="20" fill="#f7f7f7"/><rect x="8" width="2" height="20" fill="#f7f7f7"/><rect x="12" width="2" height="20" fill="#f7f7f7"/><rect x="16" width="2" height="20" fill="#f7f7f7"/></g><g transform="translate(0,162.44) scale(4.061) rotate(0)"><rect width="2" height="20" fill="#dbdcdf"/><rect x="4" width="2" height="20" fill="#dbdcdf"/><rect x="8" width="2" height="20" fill="#dbdcdf"/><rect x="12" width="2" height="20" fill="#dbdcdf"/><rect x="16" width="2" height="20" fill="#dbdcdf"/></g><g transform="translate(81.22,162.44) scale(4.061) rotate(0)"><rect width="2" height="20" fill="#ced0d3"/><rect x="4" width="2" height="20" fill="#ced0d3"/><rect x="8" width="2" height="20" fill="#ced0d3"/><rect x="12" width="2" height="20" fill="#ced0d3"/><rect x="16" width="2" height="20" fill="#ced0d3"/></g><g transform="translate(162.44,162.44) scale(4.061) rotate(0)"><rect width="2" height="20" fill="#bbbec2"/><rect x="4" width="2" height="20" fill="#bbbec2"/><rect x="8" width="2" height="20" fill="#bbbec2"/><rect x="12" width="2" height="20" fill="#bbbec2"/><rect x="16" width="2" height="20" fill="#bbbec2"/></g><g transform="translate(243.67,162.44) scale(4.061) rotate(0)"><rect width="2" height="20" fill="#e0e0e0"/><rect x="4" width="2" height="20" fill="#e0e0e0"/><rect x="8" width="2" height="20" fill="#e0e0e0"/><rect x="12" width="2" height="20" fill="#e0e0e0"/><rect x="16" width="2" height="20" fill="#e0e0e0"/></g><g transform="translate(324.89,162.44) scale(4.061) rotate(0)"><rect width="2" height="20" fill="#b2b5ba"/><rect x="4" width="2" height="20" fill="#b2b5ba"/><rect x="8" width="2" height="20" fill="#b2b5ba"/><rect x="12" width="2" height="20" fill="#b2b5ba"/><rect x="16" width="2" height="20" fill="#b2b5ba"/></g><g transform="translate(406.11,162.44) scale(4.061) rotate(0)"><rect width="20" height="2" fill="#a4a4a4"/><rect y="4" width="20" height="2" fill="#a4a4a4"/><rect y="8" width="20" height="2" fill="#a4a4a4"/><rect y="12" width="20" height="2" fill="#a4a4a4"/><rect y="16" width="20" height="2" fill="#a4a4a4"/></g><g transform="translate(487.33,162.44) scale(4.061) rotate(0)"><rect width="2" height="20" fill="#969696"/><rect x="4" width="2" height="20" fill="#969696"/><rect x="8" width="2" height="20" fill="#969696"/><rect x="12" width="2" height="20" fill="#969696"/><rect x="16" width="2" height="20" fill="#969696"/></g><g transform="translate(568.56,162.44) scale(4.061) rotate(0)"><rect width="20" height="2" fill="#e2e2e2"/><rect y="4" width="20" height="2" fill="#e2e2e2"/><rect y="8" width="20" height="2" fill="#e2e2e2"/><rect y="12" width="20" height="2" fill="#e2e2e2"/><rect y="16" width="20" height="2" fill="#e2e2e2"/></g><g transform="translate(649.78,162.44) scale(4.061) rotate(0)"><rect width="20" height="2" fill="#b3b3b3"/><rect y="4" width="20" height="2" fill="#b3b3b3"/><rect y="8" width="20" height="2" fill="#b3b3b3"/><rect y="12" width="20" height="2" fill="#b3b3b3"/><rect y="16" width="20" height="2" fill="#b3b3b3"/></g><g transform="translate(731,162.44) scale(4.061) rotate(0)"><rect width="2" height="20" fill="#dddddd"/><rect x="4" width="2" height="20" fill="#dddddd"/><rect x="8" width="2" height="20" fill="#dddddd"/><rect x="12" width="2" height="20" fill="#dddddd"/><rect x="16" width="2" height="20" fill="#dddddd"/></g><g transform="translate(0,243.67) scale(4.061) rotate(0)"><rect width="2" height="20" fill="#c8c8c8"/><rect x="4" width="2" height="20" fill="#c8c8c8"/><rect x="8" width="2" height="20" fill="#c8c8c8"/><rect x="12" width="2" height="20" fill="#c8c8c8"/><rect x="16" width="2" height="20" fill="#c8c8c8"/></g><g transform="translate(81.22,243.67) scale(4.061) rotate(0)"><rect width="20" height="2" fill="#cacccf"/><rect y="4" width="20" height="2" fill="#cacccf"/><rect y="8" width="20" height="2" fill="#cacccf"/><rect y="12" width="20" height="2" fill="#cacccf"/><rect y="16" width="20" height="2" fill="#cacccf"/></g><g transform="translate(162.44,243.67) scale(4.061) rotate(0)"><rect width="20" height="2" fill="#9a9a9a"/><rect y="4" width="20" height="2" fill="#9a9a9a"/><rect y="8" width="20" height="2" fill="#9a9a9a"/><rect y="12" width="20" height="2" fill="#9a9a9a"/><rect y="16" width="20" height="2" fill="#9a9a9a"/></g><g transform="translate(243.67,243.67) scale(4.061) rotate(0)"><rect width="2" height="20" fill="#c3c5c8"/><rect x="4" width="2" height="20" fill="#c3c5c8"/><rect x="8" width="2" height="20" fill="#c3c5c8"/><rect x="12" width="2" height="20" fill="#c3c5c8"/><rect x="16" width="2" height="20" fill="#c3c5c8"/></g><g transform="translate(324.89,243.67) scale(4.061) rotate(0)"><rect width="20" height="2" fill="#c4c6ca"/><rect y="4" width="20" height="2" fill="#c4c6ca"/><rect y="8" width="20" height="2" fill="#c4c6ca"/><rect y="12" width="20" height="2" fill="#c4c6ca"/><rect y="16" width="20" height="2" fill="#c4c6ca"/></g><g transform="translate(406.11,243.67) scale(4.061) rotate(0)"><rect width="2" height="20" fill="#bdbdbd"/><rect x="4" width="2" height="20" fill="#bdbdbd"/><rect x="8" width="2" height="20" fill="#bdbdbd"/><rect x="12" width="2" height="20" fill="#bdbdbd"/><rect x="16" width="2" height="20" fill="#bdbdbd"/></g><g transform="translate(487.33,243.67) scale(4.061) rotate(0)"><rect width="20" height="2" fill="#cdcdcd"/><rect y="4" width="20" height="2" fill="#cdcdcd"/><rect y="8" width="20" height="2" fill="#cdcdcd"/><rect y="12" width="20" height="2" fill="#cdcdcd"/><rect y="16" width="20" height="2" fill="#cdcdcd"/></g><g transform="translate(568.56,243.67) scale(4.061) rotate(0)"><rect width="20" height="2" fill="#dfdfdf"/><rect y="4" width="20" height="2" fill="#dfdfdf"/><rect y="8" width="20" height="2" fill="#dfdfdf"/><rect y="12" width="20" height="2" fill="#dfdfdf"/><rect y="16" width="20" height="2" fill="#dfdfdf"/></g><g transform="translate(649.78,243.67) scale(4.061) rotate(0)"><rect width="20" height="2" fill="#c4c6ca"/><rect y="4" width="20" height="2" fill="#c4c6ca"/><rect y="8" width="20" height="2" fill="#c4c6ca"/><rect y="12" width="20" height="2" fill="#c4c6ca"/><rect y="16" width="20" height="2" fill="#c4c6ca"/></g><g transform="translate(731,243.67) scale(4.061) rotate(0)"><rect width="20" height="2" fill="#c0c0c0"/><rect y="4" width="20" height="2" fill="#c0c0c0"/><rect y="8" width="20" height="2" fill="#c0c0c0"/><rect y="12" width="20" height="2" fill="#c0c0c0"/><rect y="16" width="20" height="2" fill="#c0c0c0"/></g><g transform="translate(0,324.89) scale(4.061) rotate(0)"><rect width="2" height="20" fill="#dddddd"/><rect x="4" width="2" height="20" fill="#dddddd"/><rect x="8" width="2" height="20" fill="#dddddd"/><rect x="12" width="2" height="20" fill="#dddddd"/><rect x="16" width="2" height="20" fill="#dddddd"/></g><g transform="translate(81.22,324.89) scale(4.061) rotate(0)"><rect width="20" height="2" fill="#c3c3c3"/><rect y="4" width="20" height="2" fill="#c3c3c3"/><rect y="8" width="20" height="2" fill="#c3c3c3"/><rect y="12" width="20" height="2" fill="#c3c3c3"/><rect y="16" width="20" height="2" fill="#c3c3c3"/></g><g transform="translate(162.44,324.89) scale(4.061) rotate(0)"><rect width="2" height="20" fill="#dadcde"/><rect x="4" width="2" height="20" fill="#dadcde"/><rect x="8" width="2" height="20" fill="#dadcde"/><rect x="12" width="2" height="20" fill="#dadcde"/><rect x="16" width="2" height="20" fill="#dadcde"/></g><g transform="translate(243.67,324.89) scale(4.061) rotate(0)"><rect width="2" height="20" fill="#bdbdbd"/><rect x="4" width="2" height="20" fill="#bdbdbd"/><rect x="8" width="2" height="20" fill="#bdbdbd"/><rect x="12" width="2" height="20" fill="#bdbdbd"/><rect x="16" width="2" height="20" fill="#bdbdbd"/></g><g transform="translate(324.89,324.89) scale(4.061) rotate(0)"><rect width="2" height="20" fill="#fafafa"/><rect x="4" width="2" height="20" fill="#fafafa"/><rect x="8" width="2" height="20" fill="#fafafa"/><rect x="12" width="2" height="20" fill="#fafafa"/><rect x="16" width="2" height="20" fill="#fafafa"/></g><g transform="translate(406.11,324.89) scale(4.061) rotate(0)"><rect width="20" height="2" fill="#f6f6f6"/><rect y="4" width="20" height="2" fill="#f6f6f6"/><rect y="8" width="20" height="2" fill="#f6f6f6"/><rect y="12" width="20" height="2" fill="#f6f6f6"/><rect y="16" width="20" height="2" fill="#f6f6f6"/></g><g transform="translate(487.33,324.89) scale(4.061) rotate(0)"><rect width="2" height="20" fill="#d5d5d5"/><rect x="4" width="2" height="20" fill="#d5d5d5"/><rect x="8" width="2" height="20" fill="#d5d5d5"/><rect x="12" width="2" height="20" fill="#d5d5d5"/><rect x="16" width="2" height="20" fill="#d5d5d5"/></g><g transform="translate(568.56,324.89) scale(4.061) rotate(0)"><rect width="2" height="20" fill="#fcfcfc"/><rect x="4" width="2" height="20" fill="#fcfcfc"/><rect x="8" width="2" height="20" fill="#fcfcfc"/><rect x="12" width="2" height="20" fill="#fcfcfc"/><rect x="16" width="2" height="20" fill="#fcfcfc"/></g><g transform="translate(649.78,324.89) scale(4.061) rotate(0)"><rect width="2" height="20" fill="#fafafb"/><rect x="4" width="2" height="20" fill="#fafafb"/><rect x="8" width="2" height="20" fill="#fafafb"/><rect x="12" width="2" height="20" fill="#fafafb"/><rect x="16" width="2" height="20" fill="#fafafb"/></g><g transform="translate(731,324.89) scale(4.061) rotate(0)"><rect width="2" height="20" fill="#dcdddf"/><rect x="4" width="2" height="20" fill="#dcdddf"/><rect x="8" width="2" height="20" fill="#dcdddf"/><rect x="12" width="2" height="20" fill="#dcdddf"/><rect x="16" width="2" height="20" fill="#dcdddf"/></g><g transform="translate(0,406.11) scale(4.061) rotate(0)"><rect width="2" height="20" fill="#a7a7a7"/><rect x="4" width="2" height="20" fill="#a7a7a7"/><rect x="8" width="2" height="20" fill="#a7a7a7"/><rect x="12" width="2" height="20" fill="#a7a7a7"/><rect x="16" width="2" height="20" fill="#a7a7a7"/></g><g transform="translate(81.22,406.11) scale(4.061) rotate(0)"><rect width="20" height="2" fill="#aeaeae"/><rect y="4" width="20" height="2" fill="#aeaeae"/><rect y="8" width="20" height="2" fill="#aeaeae"/><rect y="12" width="20" height="2" fill="#aeaeae"/><rect y="16" width="20" height="2" fill="#aeaeae"/></g><g transform="translate(162.44,406.11) scale(4.061) rotate(0)"><rect width="20" height="2" fill="#929292"/><rect y="4" width="20" height="2" fill="#929292"/><rect y="8" width="20" height="2" fill="#929292"/><rect y="12" width="20" height="2" fill="#929292"/><rect y="16" width="20" height="2" fill="#929292"/></g><g transform="translate(243.67,406.11) scale(4.061) rotate(0)"><rect width="2" height="20" fill="#b6b8bd"/><rect x="4" width="2" height="20" fill="#b6b8bd"/><rect x="8" width="2" height="20" fill="#b6b8bd"/><rect x="12" width="2" height="20" fill="#b6b8bd"/><rect x="16" width="2" height="20" fill="#b6b8bd"/></g><g transform="translate(324.89,406.11) scale(4.061) rotate(0)"><rect width="20" height="2" fill="#939393"/><rect y="4" width="20" height="2" fill="#939393"/><rect y="8" width="20" height="2" fill="#939393"/><rect y="12" width="20" height="2" fill="#939393"/><rect y="16" width="20" height="2" fill="#939393"/></g><g transform="translate(406.11,406.11) scale(4.061) rotate(0)"><rect width="20" height="2" fill="#b1b1b1"/><rect y="4" width="20" height="2" fill="#b1b1b1"/><rect y="8" width="20" height="2" fill="#b1b1b1"/><rect y="12" width="20" height="2" fill="#b1b1b1"/><rect y="16" width="20" height="2" fill="#b1b1b1"/></g><g transform="translate(487.33,406.11) scale(4.061) rotate(0)"><rect width="2" height="20" fill="#acacac"/><rect x="4" width="2" height="20" fill="#acacac"/><rect x="8" width="2" height="20" fill="#acacac"/><rect x="12" width="2" height="20" fill="#acacac"/><rect x="16" width="2" height="20" fill="#acacac"/></g><g transform="translate(568.56,406.11) scale(4.061) rotate(0)"><rect width="20" height="2" fill="#adadad"/><rect y="4" width="20" height="2" fill="#adadad"/><rect y="8" width="20" height="2" fill="#adadad"/><rect y="12" width="20" height="2" fill="#adadad"/><rect y="16" width="20" height="2" fill="#adadad"/></g><g transform="translate(649.78,406.11) scale(4.061) rotate(0)"><rect width="20" height="2" fill="#c5c7ca"/><rect y="4" width="20" height="2" fill="#c5c7ca"/><rect y="8" width="20" height="2" fill="#c5c7ca"/><rect y="12" width="20" height="2" fill="#c5c7ca"/><rect y="16" width="20" height="2" fill="#c5c7ca"/></g><g transform="translate(731,406.11) scale(4.061) rotate(0)"><rect width="2" height="20" fill="#e5e6e8"/><rect x="4" width="2" height="20" fill="#e5e6e8"/><rect x="8" width="2" height="20" fill="#e5e6e8"/><rect x="12" width="2" height="20" fill="#e5e6e8"/><rect x="16" width="2" height="20" fill="#e5e6e8"/></g><g transform="translate(0,487.33) scale(4.061) rotate(0)"><rect width="20" height="2" fill="#aeaeae"/><rect y="4" width="20" height="2" fill="#aeaeae"/><rect y="8" width="20" height="2" fill="#aeaeae"/><rect y="12" width="20" height="2" fill="#aeaeae"/><rect y="16" width="20" height="2" fill="#aeaeae"/></g><g transform="translate(81.22,487.33) scale(4.061) rotate(0)"><rect width="2" height="20" fill="#c2c4c8"/><rect x="4" width="2" height="20" fill="#c2c4c8"/><rect x="8" width="2" height="20" fill="#c2c4c8"/><rect x="12" width="2" height="20" fill="#c2c4c8"/><rect x="16" width="2" height="20" fill="#c2c4c8"/></g><g transform="translate(162.44,487.33) scale(4.061) rotate(0)"><rect width="2" height="20" fill="#f6f7f7"/><rect x="4" width="2" height="20" fill="#f6f7f7"/><rect x="8" width="2" height="20" fill="#f6f7f7"/><rect x="12" width="2" height="20" fill="#f6f7f7"/><rect x="16" width="2" height="20" fill="#f6f7f7"/></g><g transform="translate(243.67,487.33) scale(4.061) rotate(0)"><rect width="2" height="20" fill="#b9bcc0"/><rect x="4" width="2" height="20" fill="#b9bcc0"/><rect x="8" width="2" height="20" fill="#b9bcc0"/><rect x="12" width="2" height="20" fill="#b9bcc0"/><rect x="16" width="2" height="20" fill="#b9bcc0"/></g><g transform="translate(324.89,487.33) scale(4.061) rotate(0)"><rect width="20" height="2" fill="#e6e7e8"/><rect y="4" width="20" height="2" fill="#e6e7e8"/><rect y="8" width="20" height="2" fill="#e6e7e8"/><rect y="12" width="20" height="2" fill="#e6e7e8"/><rect y="16" width="20" height="2" fill="#e6e7e8"/></g><g transform="translate(406.11,487.33) scale(4.061) rotate(0)"><rect width="2" height="20" fill="#b1b4b9"/><rect x="4" width="2" height="20" fill="#b1b4b9"/><rect x="8" width="2" height="20" fill="#b1b4b9"/><rect x="12" width="2" height="20" fill="#b1b4b9"/><rect x="16" width="2" height="20" fill="#b1b4b9"/></g><g transform="translate(487.33,487.33) scale(4.061) rotate(0)"><rect width="2" height="20" fill="#dfdfdf"/><rect x="4" width="2" height="20" fill="#dfdfdf"/><rect x="8" width="2" height="20" fill="#dfdfdf"/><rect x="12" width="2" height="20" fill="#dfdfdf"/><rect x="16" width="2" height="20" fill="#dfdfdf"/></g><g transform="translate(568.56,487.33) scale(4.061) rotate(0)"><rect width="20" height="2" fill="#f3f3f3"/><rect y="4" width="20" height="2" fill="#f3f3f3"/><rect y="8" width="20" height="2" fill="#f3f3f3"/><rect y="12" width="20" height="2" fill="#f3f3f3"/><rect y="16" width="20" height="2" fill="#f3f3f3"/></g><g transform="translate(649.78,487.33) scale(4.061) rotate(0)"><rect width="20" height="2" fill="#c3c6c9"/><rect y="4" width="20" height="2" fill="#c3c6c9"/><rect y="8" width="20" height="2" fill="#c3c6c9"/><rect y="12" width="20" height="2" fill="#c3c6c9"/><rect y="16" width="20" height="2" fill="#c3c6c9"/></g><g transform="translate(731,487.33) scale(4.061) rotate(0)"><rect width="2" height="20" fill="#fcfcfc"/><rect x="4" width="2" height="20" fill="#fcfcfc"/><rect x="8" width="2" height="20" fill="#fcfcfc"/><rect x="12" width="2" height="20" fill="#fcfcfc"/><rect x="16" width="2" height="20" fill="#fcfcfc"/></g><g transform="translate(0,568.56) scale(4.061) rotate(0)"><rect width="2" height="20" fill="#8c8c8c"/><rect x="4" width="2" height="20" fill="#8c8c8c"/><rect x="8" width="2" height="20" fill="#8c8c8c"/><rect x="12" width="2" height="20" fill="#8c8c8c"/><rect x="16" width="2" height="20" fill="#8c8c8c"/></g><g transform="translate(81.22,568.56) scale(4.061) rotate(0)"><rect width="2" height="20" fill="#c5c7cb"/><rect x="4" width="2" height="20" fill="#c5c7cb"/><rect x="8" width="2" height="20" fill="#c5c7cb"/><rect x="12" width="2" height="20" fill="#c5c7cb"/><rect x="16" width="2" height="20" fill="#c5c7cb"/></g><g transform="translate(162.44,568.56) scale(4.061) rotate(0)"><rect width="20" height="2" fill="#a8a8a8"/><rect y="4" width="20" height="2" fill="#a8a8a8"/><rect y="8" width="20" height="2" fill="#a8a8a8"/><rect y="12" width="20" height="2" fill="#a8a8a8"/><rect y="16" width="20" height="2" fill="#a8a8a8"/></g><g transform="translate(243.67,568.56) scale(4.061) rotate(0)"><rect width="20" height="2" fill="#bababa"/><rect y="4" width="20" height="2" fill="#bababa"/><rect y="8" width="20" height="2" fill="#bababa"/><rect y="12" width="20" height="2" fill="#bababa"/><rect y="16" width="20" height="2" fill="#bababa"/></g><g transform="translate(324.89,568.56) scale(4.061) rotate(0)"><rect width="2" height="20" fill="#adb0b5"/><rect x="4" width="2" height="20" fill="#adb0b5"/><rect x="8" width="2" height="20" fill="#adb0b5"/><rect x="12" width="2" height="20" fill="#adb0b5"/><rect x="16" width="2" height="20" fill="#adb0b5"/></g><g transform="translate(406.11,568.56) scale(4.061) rotate(0)"><rect width="2" height="20" fill="#bcbcbc"/><rect x="4" width="2" height="20" fill="#bcbcbc"/><rect x="8" width="2" height="20" fill="#bcbcbc"/><rect x="12" width="2" height="20" fill="#bcbcbc"/><rect x="16" width="2" height="20" fill="#bcbcbc"/></g><g transform="translate(487.33,568.56) scale(4.061) rotate(0)"><rect width="2" height="20" fill="#d8d8d8"/><rect x="4" width="2" height="20" fill="#d8d8d8"/><rect x="8" width="2" height="20" fill="#d8d8d8"/><rect x="12" width="2" height="20" fill="#d8d8d8"/><rect x="16" width="2" height="20" fill="#d8d8d8"/></g><g transform="translate(568.56,568.56) scale(4.061) rotate(0)"><rect width="20" height="2" fill="#f0f1f2"/><rect y="4" width="20" height="2" fill="#f0f1f2"/><rect y="8" width="20" height="2" fill="#f0f1f2"/><rect y="12" width="20" height="2" fill="#f0f1f2"/><rect y="16" width="20" height="2" fill="#f0f1f2"/></g><g transform="translate(649.78,568.56) scale(4.061) rotate(0)"><rect width="20" height="2" fill="#959595"/><rect y="4" width="20" height="2" fill="#959595"/><rect y="8" width="20" height="2" fill="#959595"/><rect y="12" width="20" height="2" fill="#959595"/><rect y="16" width="20" height="2" fill="#959595"/></g><g transform="translate(731,568.56) scale(4.061) rotate(0)"><rect width="2" height="20" fill="#d2d3d6"/><rect x="4" width="2" height="20" fill="#d2d3d6"/><rect x="8" width="2" height="20" fill="#d2d3d6"/><rect x="12" width="2" height="20" fill="#d2d3d6"/><rect x="16" width="2" height="20" fill="#d2d3d6"/></g><g transform="translate(0,649.78) scale(4.061) rotate(0)"><rect width="2" height="20" fill="#bbbec2"/><rect x="4" width="2" height="20" fill="#bbbec2"/><rect x="8" width="2" height="20" fill="#bbbec2"/><rect x="12" width="2" height="20" fill="#bbbec2"/><rect x="16" width="2" height="20" fill="#bbbec2"/></g><g transform="translate(81.22,649.78) scale(4.061) rotate(0)"><rect width="2" height="20" fill="#b4b4b4"/><rect x="4" width="2" height="20" fill="#b4b4b4"/><rect x="8" width="2" height="20" fill="#b4b4b4"/><rect x="12" width="2" height="20" fill="#b4b4b4"/><rect x="16" width="2" height="20" fill="#b4b4b4"/></g><g transform="translate(162.44,649.78) scale(4.061) rotate(0)"><rect width="20" height="2" fill="#f8f8f8"/><rect y="4" width="20" height="2" fill="#f8f8f8"/><rect y="8" width="20" height="2" fill="#f8f8f8"/><rect y="12" width="20" height="2" fill="#f8f8f8"/><rect y="16" width="20" height="2" fill="#f8f8f8"/></g><g transform="translate(243.67,649.78) scale(4.061) rotate(0)"><rect width="2" height="20" fill="#939393"/><rect x="4" width="2" height="20" fill="#939393"/><rect x="8" width="2" height="20" fill="#939393"/><rect x="12" width="2" height="20" fill="#939393"/><rect x="16" width="2" height="20" fill="#939393"/></g><g transform="translate(324.89,649.78) scale(4.061) rotate(0)"><rect width="2" height="20" fill="#c3c5c8"/><rect x="4" width="2" height="20" fill="#c3c5c8"/><rect x="8" width="2" height="20" fill="#c3c5c8"/><rect x="12" width="2" height="20" fill="#c3c5c8"/><rect x="16" width="2" height="20" fill="#c3c5c8"/></g><g transform="translate(406.11,649.78) scale(4.061) rotate(0)"><rect width="2" height="20" fill="#8d8d8d"/><rect x="4" width="2" height="20" fill="#8d8d8d"/><rect x="8" width="2" height="20" fill="#8d8d8d"/><rect x="12" width="2" height="20" fill="#8d8d8d"/><rect x="16" width="2" height="20" fill="#8d8d8d"/></g><g transform="translate(487.33,649.78) scale(4.061) rotate(0)"><rect width="20" height="2" fill="#acacac"/><rect y="4" width="20" height="2" fill="#acacac"/><rect y="8" width="20" height="2" fill="#acacac"/><rect y="12" width="20" height="2" fill="#acacac"/><rect y="16" width="20" height="2" fill="#acacac"/></g><g transform="translate(568.56,649.78) scale(4.061) rotate(0)"><rect width="20" height="2" fill="#b3b5ba"/><rect y="4" width="20" height="2" fill="#b3b5ba"/><rect y="8" width="20" height="2" fill="#b3b5ba"/><rect y="12" width="20" height="2" fill="#b3b5ba"/><rect y="16" width="20" height="2" fill="#b3b5ba"/></g><g transform="translate(649.78,649.78) scale(4.061) rotate(0)"><rect width="20" height="2" fill="#dddee0"/><rect y="4" width="20" height="2" fill="#dddee0"/><rect y="8" width="20" height="2" fill="#dddee0"/><rect y="12" width="20" height="2" fill="#dddee0"/><rect y="16" width="20" height="2" fill="#dddee0"/></g><g transform="translate(731,649.78) scale(4.061) rotate(0)"><rect width="2" height="20" fill="#fcfcfc"/><rect x="4" width="2" height="20" fill="#fcfcfc"/><rect x="8" width="2" height="20" fill="#fcfcfc"/><rect x="12" width="2" height="20" fill="#fcfcfc"/><rect x="16" width="2" height="20" fill="#fcfcfc"/></g></g></svg>