<svg xmlns="http://www.w3.org/2000/svg" version="1.1" xmlns:xlink="http://www.w3.org/1999/xlink" xmlns:svgjs="http://svgjs.com/svgjs" width="1980" height="1000" preserveAspectRatio="none" viewBox="0 0 1980 1000"><g mask="url(&quot;#SvgjsMask1046&quot;)" fill="none"><rect width="1980" height="1000" x="0" y="0" fill="rgba(255, 255, 255, 1)"></rect><g transform="translate(0, 0)"><use xlink:href="#SvgjsPath1047" x="350" y="500" fill="rgba(193, 196, 199, 1)"></use><use xlink:href="#SvgjsPath1048" x="370" y="500" fill="rgba(193, 196, 199, 1)"></use><use xlink:href="#SvgjsPath1049" x="390" y="500" fill="rgba(193, 196, 199, 1)"></use><use xlink:href="#SvgjsPath1050" x="410" y="500" fill="rgba(193, 196, 199, 1)"></use><use xlink:href="#SvgjsPath1051" x="430" y="500" fill="rgba(193, 196, 199, 1)"></use><use xlink:href="#SvgjsPath1051" x="450" y="500" fill="rgba(193, 196, 199, 1)"></use><use xlink:href="#SvgjsPath1052" x="470" y="500" fill="rgba(193, 196, 199, 1)"></use><use xlink:href="#SvgjsPath1051" x="490" y="500" fill="rgba(193, 196, 199, 1)"></use><use xlink:href="#SvgjsPath1053" x="510" y="500" fill="rgba(193, 196, 199, 1)"></use><use xlink:href="#SvgjsPath1050" x="530" y="500" fill="rgba(193, 196, 199, 1)"></use><use xlink:href="#SvgjsPath1054" x="550" y="500" fill="rgba(193, 196, 199, 1)"></use><use xlink:href="#SvgjsPath1054" x="570" y="500" fill="rgba(193, 196, 199, 1)"></use><use xlink:href="#SvgjsPath1055" x="590" y="500" fill="rgba(193, 196, 199, 1)"></use><use xlink:href="#SvgjsPath1049" x="610" y="500" fill="rgba(193, 196, 199, 1)"></use><use xlink:href="#SvgjsPath1056" x="630" y="500" fill="rgba(193, 196, 199, 1)"></use><use xlink:href="#SvgjsPath1048" x="650" y="500" fill="rgba(193, 196, 199, 1)"></use><use xlink:href="#SvgjsPath1054" x="670" y="500" fill="rgba(193, 196, 199, 1)"></use><use xlink:href="#SvgjsPath1053" x="690" y="500" fill="rgba(193, 196, 199, 1)"></use><use xlink:href="#SvgjsPath1057" x="710" y="500" fill="rgba(193, 196, 199, 1)"></use><use xlink:href="#SvgjsPath1054" x="730" y="500" fill="rgba(193, 196, 199, 1)"></use><use xlink:href="#SvgjsPath1057" x="750" y="500" fill="rgba(193, 196, 199, 1)"></use><use xlink:href="#SvgjsPath1050" x="770" y="500" fill="rgba(193, 196, 199, 1)"></use><use xlink:href="#SvgjsPath1048" x="790" y="500" fill="rgba(193, 196, 199, 1)"></use><use xlink:href="#SvgjsPath1052" x="810" y="500" fill="rgba(193, 196, 199, 1)"></use><use xlink:href="#SvgjsPath1053" x="830" y="500" fill="rgba(193, 196, 199, 1)"></use><use xlink:href="#SvgjsPath1057" x="850" y="500" fill="rgba(193, 196, 199, 1)"></use><use xlink:href="#SvgjsPath1058" x="870" y="500" fill="rgba(193, 196, 199, 1)"></use><use xlink:href="#SvgjsPath1057" x="890" y="500" fill="rgba(193, 196, 199, 1)"></use><use xlink:href="#SvgjsPath1057" x="910" y="500" fill="rgba(193, 196, 199, 1)"></use><use xlink:href="#SvgjsPath1050" x="930" y="500" fill="rgba(193, 196, 199, 1)"></use><use xlink:href="#SvgjsPath1059" x="950" y="500" fill="rgba(193, 196, 199, 1)"></use><use xlink:href="#SvgjsPath1060" x="970" y="500" fill="rgba(193, 196, 199, 1)"></use><use xlink:href="#SvgjsPath1053" x="990" y="500" fill="rgba(193, 196, 199, 1)"></use><use xlink:href="#SvgjsPath1052" x="1010" y="500" fill="rgba(193, 196, 199, 1)"></use><use xlink:href="#SvgjsPath1061" x="1030" y="500" fill="rgba(193, 196, 199, 1)"></use><use xlink:href="#SvgjsPath1051" x="1050" y="500" fill="rgba(193, 196, 199, 1)"></use><use xlink:href="#SvgjsPath1047" x="1070" y="500" fill="rgba(193, 196, 199, 1)"></use><use xlink:href="#SvgjsPath1053" x="1090" y="500" fill="rgba(193, 196, 199, 1)"></use><use xlink:href="#SvgjsPath1054" x="1110" y="500" fill="rgba(193, 196, 199, 1)"></use><use xlink:href="#SvgjsPath1052" x="1130" y="500" fill="rgba(193, 196, 199, 1)"></use><use xlink:href="#SvgjsPath1047" x="1150" y="500" fill="rgba(193, 196, 199, 1)"></use><use xlink:href="#SvgjsPath1051" x="1170" y="500" fill="rgba(193, 196, 199, 1)"></use><use xlink:href="#SvgjsPath1051" x="1190" y="500" fill="rgba(193, 196, 199, 1)"></use><use xlink:href="#SvgjsPath1050" x="1210" y="500" fill="rgba(193, 196, 199, 1)"></use><use xlink:href="#SvgjsPath1049" x="1230" y="500" fill="rgba(193, 196, 199, 1)"></use><use xlink:href="#SvgjsPath1057" x="1250" y="500" fill="rgba(193, 196, 199, 1)"></use><use xlink:href="#SvgjsPath1050" x="1270" y="500" fill="rgba(193, 196, 199, 1)"></use><use xlink:href="#SvgjsPath1052" x="1290" y="500" fill="rgba(193, 196, 199, 1)"></use><use xlink:href="#SvgjsPath1047" x="1310" y="500" fill="rgba(193, 196, 199, 1)"></use><use xlink:href="#SvgjsPath1056" x="1330" y="500" fill="rgba(193, 196, 199, 1)"></use><use xlink:href="#SvgjsPath1055" x="1350" y="500" fill="rgba(193, 196, 199, 1)"></use><use xlink:href="#SvgjsPath1060" x="1370" y="500" fill="rgba(193, 196, 199, 1)"></use><use xlink:href="#SvgjsPath1059" x="1390" y="500" fill="rgba(193, 196, 199, 1)"></use><use xlink:href="#SvgjsPath1049" x="1410" y="500" fill="rgba(193, 196, 199, 1)"></use><use xlink:href="#SvgjsPath1057" x="1430" y="500" fill="rgba(193, 196, 199, 1)"></use><use xlink:href="#SvgjsPath1047" x="1450" y="500" fill="rgba(193, 196, 199, 1)"></use><use xlink:href="#SvgjsPath1061" x="1470" y="500" fill="rgba(193, 196, 199, 1)"></use><use xlink:href="#SvgjsPath1062" x="1490" y="500" fill="rgba(193, 196, 199, 1)"></use><use xlink:href="#SvgjsPath1058" x="1510" y="500" fill="rgba(193, 196, 199, 1)"></use><use xlink:href="#SvgjsPath1059" x="1530" y="500" fill="rgba(193, 196, 199, 1)"></use><use xlink:href="#SvgjsPath1053" x="1550" y="500" fill="rgba(193, 196, 199, 1)"></use><use xlink:href="#SvgjsPath1062" x="1570" y="500" fill="rgba(193, 196, 199, 1)"></use><use xlink:href="#SvgjsPath1061" x="1590" y="500" fill="rgba(193, 196, 199, 1)"></use><use xlink:href="#SvgjsPath1055" x="1610" y="500" fill="rgba(193, 196, 199, 1)"></use><use xlink:href="#SvgjsPath1061" x="1630" y="500" fill="rgba(193, 196, 199, 1)"></use></g></g><defs><mask id="SvgjsMask1046"><rect width="1980" height="1000" fill="#ffffff"></rect></mask><path d="M-8 0 a8 8 0 1 0 16 0 a8 8 0 1 0 -16 0zM-8 20 a8 8 0 1 0 16 0 a8 8 0 1 0 -16 0zM-8 -20 a8 8 0 1 0 16 0 a8 8 0 1 0 -16 0z" id="SvgjsPath1055"></path><path d="M-8 0 a8 8 0 1 0 16 0 a8 8 0 1 0 -16 0zM-8 20 a8 8 0 1 0 16 0 a8 8 0 1 0 -16 0zM-8 -20 a8 8 0 1 0 16 0 a8 8 0 1 0 -16 0zM-8 40 a8 8 0 1 0 16 0 a8 8 0 1 0 -16 0zM-8 -40 a8 8 0 1 0 16 0 a8 8 0 1 0 -16 0z" id="SvgjsPath1049"></path><path d="M-8 0 a8 8 0 1 0 16 0 a8 8 0 1 0 -16 0zM-8 20 a8 8 0 1 0 16 0 a8 8 0 1 0 -16 0zM-8 -20 a8 8 0 1 0 16 0 a8 8 0 1 0 -16 0zM-8 40 a8 8 0 1 0 16 0 a8 8 0 1 0 -16 0zM-8 -40 a8 8 0 1 0 16 0 a8 8 0 1 0 -16 0zM-8 60 a8 8 0 1 0 16 0 a8 8 0 1 0 -16 0zM-8 -60 a8 8 0 1 0 16 0 a8 8 0 1 0 -16 0z" id="SvgjsPath1048"></path><path d="M-8 0 a8 8 0 1 0 16 0 a8 8 0 1 0 -16 0zM-8 20 a8 8 0 1 0 16 0 a8 8 0 1 0 -16 0zM-8 -20 a8 8 0 1 0 16 0 a8 8 0 1 0 -16 0zM-8 40 a8 8 0 1 0 16 0 a8 8 0 1 0 -16 0zM-8 -40 a8 8 0 1 0 16 0 a8 8 0 1 0 -16 0zM-8 60 a8 8 0 1 0 16 0 a8 8 0 1 0 -16 0zM-8 -60 a8 8 0 1 0 16 0 a8 8 0 1 0 -16 0zM-8 80 a8 8 0 1 0 16 0 a8 8 0 1 0 -16 0zM-8 -80 a8 8 0 1 0 16 0 a8 8 0 1 0 -16 0z" id="SvgjsPath1062"></path><path d="M-8 0 a8 8 0 1 0 16 0 a8 8 0 1 0 -16 0zM-8 20 a8 8 0 1 0 16 0 a8 8 0 1 0 -16 0zM-8 -20 a8 8 0 1 0 16 0 a8 8 0 1 0 -16 0zM-8 40 a8 8 0 1 0 16 0 a8 8 0 1 0 -16 0zM-8 -40 a8 8 0 1 0 16 0 a8 8 0 1 0 -16 0zM-8 60 a8 8 0 1 0 16 0 a8 8 0 1 0 -16 0zM-8 -60 a8 8 0 1 0 16 0 a8 8 0 1 0 -16 0zM-8 80 a8 8 0 1 0 16 0 a8 8 0 1 0 -16 0zM-8 -80 a8 8 0 1 0 16 0 a8 8 0 1 0 -16 0zM-8 100 a8 8 0 1 0 16 0 a8 8 0 1 0 -16 0zM-8 -100 a8 8 0 1 0 16 0 a8 8 0 1 0 -16 0z" id="SvgjsPath1052"></path><path d="M-8 0 a8 8 0 1 0 16 0 a8 8 0 1 0 -16 0zM-8 20 a8 8 0 1 0 16 0 a8 8 0 1 0 -16 0zM-8 -20 a8 8 0 1 0 16 0 a8 8 0 1 0 -16 0zM-8 40 a8 8 0 1 0 16 0 a8 8 0 1 0 -16 0zM-8 -40 a8 8 0 1 0 16 0 a8 8 0 1 0 -16 0zM-8 60 a8 8 0 1 0 16 0 a8 8 0 1 0 -16 0zM-8 -60 a8 8 0 1 0 16 0 a8 8 0 1 0 -16 0zM-8 80 a8 8 0 1 0 16 0 a8 8 0 1 0 -16 0zM-8 -80 a8 8 0 1 0 16 0 a8 8 0 1 0 -16 0zM-8 100 a8 8 0 1 0 16 0 a8 8 0 1 0 -16 0zM-8 -100 a8 8 0 1 0 16 0 a8 8 0 1 0 -16 0zM-8 120 a8 8 0 1 0 16 0 a8 8 0 1 0 -16 0zM-8 -120 a8 8 0 1 0 16 0 a8 8 0 1 0 -16 0z" id="SvgjsPath1061"></path><path d="M-8 0 a8 8 0 1 0 16 0 a8 8 0 1 0 -16 0zM-8 20 a8 8 0 1 0 16 0 a8 8 0 1 0 -16 0zM-8 -20 a8 8 0 1 0 16 0 a8 8 0 1 0 -16 0zM-8 40 a8 8 0 1 0 16 0 a8 8 0 1 0 -16 0zM-8 -40 a8 8 0 1 0 16 0 a8 8 0 1 0 -16 0zM-8 60 a8 8 0 1 0 16 0 a8 8 0 1 0 -16 0zM-8 -60 a8 8 0 1 0 16 0 a8 8 0 1 0 -16 0zM-8 80 a8 8 0 1 0 16 0 a8 8 0 1 0 -16 0zM-8 -80 a8 8 0 1 0 16 0 a8 8 0 1 0 -16 0zM-8 100 a8 8 0 1 0 16 0 a8 8 0 1 0 -16 0zM-8 -100 a8 8 0 1 0 16 0 a8 8 0 1 0 -16 0zM-8 120 a8 8 0 1 0 16 0 a8 8 0 1 0 -16 0zM-8 -120 a8 8 0 1 0 16 0 a8 8 0 1 0 -16 0zM-8 140 a8 8 0 1 0 16 0 a8 8 0 1 0 -16 0zM-8 -140 a8 8 0 1 0 16 0 a8 8 0 1 0 -16 0z" id="SvgjsPath1058"></path><path d="M-8 0 a8 8 0 1 0 16 0 a8 8 0 1 0 -16 0zM-8 20 a8 8 0 1 0 16 0 a8 8 0 1 0 -16 0zM-8 -20 a8 8 0 1 0 16 0 a8 8 0 1 0 -16 0zM-8 40 a8 8 0 1 0 16 0 a8 8 0 1 0 -16 0zM-8 -40 a8 8 0 1 0 16 0 a8 8 0 1 0 -16 0zM-8 60 a8 8 0 1 0 16 0 a8 8 0 1 0 -16 0zM-8 -60 a8 8 0 1 0 16 0 a8 8 0 1 0 -16 0zM-8 80 a8 8 0 1 0 16 0 a8 8 0 1 0 -16 0zM-8 -80 a8 8 0 1 0 16 0 a8 8 0 1 0 -16 0zM-8 100 a8 8 0 1 0 16 0 a8 8 0 1 0 -16 0zM-8 -100 a8 8 0 1 0 16 0 a8 8 0 1 0 -16 0zM-8 120 a8 8 0 1 0 16 0 a8 8 0 1 0 -16 0zM-8 -120 a8 8 0 1 0 16 0 a8 8 0 1 0 -16 0zM-8 140 a8 8 0 1 0 16 0 a8 8 0 1 0 -16 0zM-8 -140 a8 8 0 1 0 16 0 a8 8 0 1 0 -16 0zM-8 160 a8 8 0 1 0 16 0 a8 8 0 1 0 -16 0zM-8 -160 a8 8 0 1 0 16 0 a8 8 0 1 0 -16 0z" id="SvgjsPath1047"></path><path d="M-8 0 a8 8 0 1 0 16 0 a8 8 0 1 0 -16 0zM-8 20 a8 8 0 1 0 16 0 a8 8 0 1 0 -16 0zM-8 -20 a8 8 0 1 0 16 0 a8 8 0 1 0 -16 0zM-8 40 a8 8 0 1 0 16 0 a8 8 0 1 0 -16 0zM-8 -40 a8 8 0 1 0 16 0 a8 8 0 1 0 -16 0zM-8 60 a8 8 0 1 0 16 0 a8 8 0 1 0 -16 0zM-8 -60 a8 8 0 1 0 16 0 a8 8 0 1 0 -16 0zM-8 80 a8 8 0 1 0 16 0 a8 8 0 1 0 -16 0zM-8 -80 a8 8 0 1 0 16 0 a8 8 0 1 0 -16 0zM-8 100 a8 8 0 1 0 16 0 a8 8 0 1 0 -16 0zM-8 -100 a8 8 0 1 0 16 0 a8 8 0 1 0 -16 0zM-8 120 a8 8 0 1 0 16 0 a8 8 0 1 0 -16 0zM-8 -120 a8 8 0 1 0 16 0 a8 8 0 1 0 -16 0zM-8 140 a8 8 0 1 0 16 0 a8 8 0 1 0 -16 0zM-8 -140 a8 8 0 1 0 16 0 a8 8 0 1 0 -16 0zM-8 160 a8 8 0 1 0 16 0 a8 8 0 1 0 -16 0zM-8 -160 a8 8 0 1 0 16 0 a8 8 0 1 0 -16 0zM-8 180 a8 8 0 1 0 16 0 a8 8 0 1 0 -16 0zM-8 -180 a8 8 0 1 0 16 0 a8 8 0 1 0 -16 0z" id="SvgjsPath1054"></path><path d="M-8 0 a8 8 0 1 0 16 0 a8 8 0 1 0 -16 0zM-8 20 a8 8 0 1 0 16 0 a8 8 0 1 0 -16 0zM-8 -20 a8 8 0 1 0 16 0 a8 8 0 1 0 -16 0zM-8 40 a8 8 0 1 0 16 0 a8 8 0 1 0 -16 0zM-8 -40 a8 8 0 1 0 16 0 a8 8 0 1 0 -16 0zM-8 60 a8 8 0 1 0 16 0 a8 8 0 1 0 -16 0zM-8 -60 a8 8 0 1 0 16 0 a8 8 0 1 0 -16 0zM-8 80 a8 8 0 1 0 16 0 a8 8 0 1 0 -16 0zM-8 -80 a8 8 0 1 0 16 0 a8 8 0 1 0 -16 0zM-8 100 a8 8 0 1 0 16 0 a8 8 0 1 0 -16 0zM-8 -100 a8 8 0 1 0 16 0 a8 8 0 1 0 -16 0zM-8 120 a8 8 0 1 0 16 0 a8 8 0 1 0 -16 0zM-8 -120 a8 8 0 1 0 16 0 a8 8 0 1 0 -16 0zM-8 140 a8 8 0 1 0 16 0 a8 8 0 1 0 -16 0zM-8 -140 a8 8 0 1 0 16 0 a8 8 0 1 0 -16 0zM-8 160 a8 8 0 1 0 16 0 a8 8 0 1 0 -16 0zM-8 -160 a8 8 0 1 0 16 0 a8 8 0 1 0 -16 0zM-8 180 a8 8 0 1 0 16 0 a8 8 0 1 0 -16 0zM-8 -180 a8 8 0 1 0 16 0 a8 8 0 1 0 -16 0zM-8 200 a8 8 0 1 0 16 0 a8 8 0 1 0 -16 0zM-8 -200 a8 8 0 1 0 16 0 a8 8 0 1 0 -16 0z" id="SvgjsPath1057"></path><path d="M-8 0 a8 8 0 1 0 16 0 a8 8 0 1 0 -16 0zM-8 20 a8 8 0 1 0 16 0 a8 8 0 1 0 -16 0zM-8 -20 a8 8 0 1 0 16 0 a8 8 0 1 0 -16 0zM-8 40 a8 8 0 1 0 16 0 a8 8 0 1 0 -16 0zM-8 -40 a8 8 0 1 0 16 0 a8 8 0 1 0 -16 0zM-8 60 a8 8 0 1 0 16 0 a8 8 0 1 0 -16 0zM-8 -60 a8 8 0 1 0 16 0 a8 8 0 1 0 -16 0zM-8 80 a8 8 0 1 0 16 0 a8 8 0 1 0 -16 0zM-8 -80 a8 8 0 1 0 16 0 a8 8 0 1 0 -16 0zM-8 100 a8 8 0 1 0 16 0 a8 8 0 1 0 -16 0zM-8 -100 a8 8 0 1 0 16 0 a8 8 0 1 0 -16 0zM-8 120 a8 8 0 1 0 16 0 a8 8 0 1 0 -16 0zM-8 -120 a8 8 0 1 0 16 0 a8 8 0 1 0 -16 0zM-8 140 a8 8 0 1 0 16 0 a8 8 0 1 0 -16 0zM-8 -140 a8 8 0 1 0 16 0 a8 8 0 1 0 -16 0zM-8 160 a8 8 0 1 0 16 0 a8 8 0 1 0 -16 0zM-8 -160 a8 8 0 1 0 16 0 a8 8 0 1 0 -16 0zM-8 180 a8 8 0 1 0 16 0 a8 8 0 1 0 -16 0zM-8 -180 a8 8 0 1 0 16 0 a8 8 0 1 0 -16 0zM-8 200 a8 8 0 1 0 16 0 a8 8 0 1 0 -16 0zM-8 -200 a8 8 0 1 0 16 0 a8 8 0 1 0 -16 0zM-8 220 a8 8 0 1 0 16 0 a8 8 0 1 0 -16 0zM-8 -220 a8 8 0 1 0 16 0 a8 8 0 1 0 -16 0z" id="SvgjsPath1053"></path><path d="M-8 0 a8 8 0 1 0 16 0 a8 8 0 1 0 -16 0zM-8 20 a8 8 0 1 0 16 0 a8 8 0 1 0 -16 0zM-8 -20 a8 8 0 1 0 16 0 a8 8 0 1 0 -16 0zM-8 40 a8 8 0 1 0 16 0 a8 8 0 1 0 -16 0zM-8 -40 a8 8 0 1 0 16 0 a8 8 0 1 0 -16 0zM-8 60 a8 8 0 1 0 16 0 a8 8 0 1 0 -16 0zM-8 -60 a8 8 0 1 0 16 0 a8 8 0 1 0 -16 0zM-8 80 a8 8 0 1 0 16 0 a8 8 0 1 0 -16 0zM-8 -80 a8 8 0 1 0 16 0 a8 8 0 1 0 -16 0zM-8 100 a8 8 0 1 0 16 0 a8 8 0 1 0 -16 0zM-8 -100 a8 8 0 1 0 16 0 a8 8 0 1 0 -16 0zM-8 120 a8 8 0 1 0 16 0 a8 8 0 1 0 -16 0zM-8 -120 a8 8 0 1 0 16 0 a8 8 0 1 0 -16 0zM-8 140 a8 8 0 1 0 16 0 a8 8 0 1 0 -16 0zM-8 -140 a8 8 0 1 0 16 0 a8 8 0 1 0 -16 0zM-8 160 a8 8 0 1 0 16 0 a8 8 0 1 0 -16 0zM-8 -160 a8 8 0 1 0 16 0 a8 8 0 1 0 -16 0zM-8 180 a8 8 0 1 0 16 0 a8 8 0 1 0 -16 0zM-8 -180 a8 8 0 1 0 16 0 a8 8 0 1 0 -16 0zM-8 200 a8 8 0 1 0 16 0 a8 8 0 1 0 -16 0zM-8 -200 a8 8 0 1 0 16 0 a8 8 0 1 0 -16 0zM-8 220 a8 8 0 1 0 16 0 a8 8 0 1 0 -16 0zM-8 -220 a8 8 0 1 0 16 0 a8 8 0 1 0 -16 0zM-8 240 a8 8 0 1 0 16 0 a8 8 0 1 0 -16 0zM-8 -240 a8 8 0 1 0 16 0 a8 8 0 1 0 -16 0z" id="SvgjsPath1056"></path><path d="M-8 0 a8 8 0 1 0 16 0 a8 8 0 1 0 -16 0zM-8 20 a8 8 0 1 0 16 0 a8 8 0 1 0 -16 0zM-8 -20 a8 8 0 1 0 16 0 a8 8 0 1 0 -16 0zM-8 40 a8 8 0 1 0 16 0 a8 8 0 1 0 -16 0zM-8 -40 a8 8 0 1 0 16 0 a8 8 0 1 0 -16 0zM-8 60 a8 8 0 1 0 16 0 a8 8 0 1 0 -16 0zM-8 -60 a8 8 0 1 0 16 0 a8 8 0 1 0 -16 0zM-8 80 a8 8 0 1 0 16 0 a8 8 0 1 0 -16 0zM-8 -80 a8 8 0 1 0 16 0 a8 8 0 1 0 -16 0zM-8 100 a8 8 0 1 0 16 0 a8 8 0 1 0 -16 0zM-8 -100 a8 8 0 1 0 16 0 a8 8 0 1 0 -16 0zM-8 120 a8 8 0 1 0 16 0 a8 8 0 1 0 -16 0zM-8 -120 a8 8 0 1 0 16 0 a8 8 0 1 0 -16 0zM-8 140 a8 8 0 1 0 16 0 a8 8 0 1 0 -16 0zM-8 -140 a8 8 0 1 0 16 0 a8 8 0 1 0 -16 0zM-8 160 a8 8 0 1 0 16 0 a8 8 0 1 0 -16 0zM-8 -160 a8 8 0 1 0 16 0 a8 8 0 1 0 -16 0zM-8 180 a8 8 0 1 0 16 0 a8 8 0 1 0 -16 0zM-8 -180 a8 8 0 1 0 16 0 a8 8 0 1 0 -16 0zM-8 200 a8 8 0 1 0 16 0 a8 8 0 1 0 -16 0zM-8 -200 a8 8 0 1 0 16 0 a8 8 0 1 0 -16 0zM-8 220 a8 8 0 1 0 16 0 a8 8 0 1 0 -16 0zM-8 -220 a8 8 0 1 0 16 0 a8 8 0 1 0 -16 0zM-8 240 a8 8 0 1 0 16 0 a8 8 0 1 0 -16 0zM-8 -240 a8 8 0 1 0 16 0 a8 8 0 1 0 -16 0zM-8 260 a8 8 0 1 0 16 0 a8 8 0 1 0 -16 0zM-8 -260 a8 8 0 1 0 16 0 a8 8 0 1 0 -16 0z" id="SvgjsPath1059"></path><path d="M-8 0 a8 8 0 1 0 16 0 a8 8 0 1 0 -16 0zM-8 20 a8 8 0 1 0 16 0 a8 8 0 1 0 -16 0zM-8 -20 a8 8 0 1 0 16 0 a8 8 0 1 0 -16 0zM-8 40 a8 8 0 1 0 16 0 a8 8 0 1 0 -16 0zM-8 -40 a8 8 0 1 0 16 0 a8 8 0 1 0 -16 0zM-8 60 a8 8 0 1 0 16 0 a8 8 0 1 0 -16 0zM-8 -60 a8 8 0 1 0 16 0 a8 8 0 1 0 -16 0zM-8 80 a8 8 0 1 0 16 0 a8 8 0 1 0 -16 0zM-8 -80 a8 8 0 1 0 16 0 a8 8 0 1 0 -16 0zM-8 100 a8 8 0 1 0 16 0 a8 8 0 1 0 -16 0zM-8 -100 a8 8 0 1 0 16 0 a8 8 0 1 0 -16 0zM-8 120 a8 8 0 1 0 16 0 a8 8 0 1 0 -16 0zM-8 -120 a8 8 0 1 0 16 0 a8 8 0 1 0 -16 0zM-8 140 a8 8 0 1 0 16 0 a8 8 0 1 0 -16 0zM-8 -140 a8 8 0 1 0 16 0 a8 8 0 1 0 -16 0zM-8 160 a8 8 0 1 0 16 0 a8 8 0 1 0 -16 0zM-8 -160 a8 8 0 1 0 16 0 a8 8 0 1 0 -16 0zM-8 180 a8 8 0 1 0 16 0 a8 8 0 1 0 -16 0zM-8 -180 a8 8 0 1 0 16 0 a8 8 0 1 0 -16 0zM-8 200 a8 8 0 1 0 16 0 a8 8 0 1 0 -16 0zM-8 -200 a8 8 0 1 0 16 0 a8 8 0 1 0 -16 0zM-8 220 a8 8 0 1 0 16 0 a8 8 0 1 0 -16 0zM-8 -220 a8 8 0 1 0 16 0 a8 8 0 1 0 -16 0zM-8 240 a8 8 0 1 0 16 0 a8 8 0 1 0 -16 0zM-8 -240 a8 8 0 1 0 16 0 a8 8 0 1 0 -16 0zM-8 260 a8 8 0 1 0 16 0 a8 8 0 1 0 -16 0zM-8 -260 a8 8 0 1 0 16 0 a8 8 0 1 0 -16 0zM-8 280 a8 8 0 1 0 16 0 a8 8 0 1 0 -16 0zM-8 -280 a8 8 0 1 0 16 0 a8 8 0 1 0 -16 0z" id="SvgjsPath1050"></path><path d="M-8 0 a8 8 0 1 0 16 0 a8 8 0 1 0 -16 0zM-8 20 a8 8 0 1 0 16 0 a8 8 0 1 0 -16 0zM-8 -20 a8 8 0 1 0 16 0 a8 8 0 1 0 -16 0zM-8 40 a8 8 0 1 0 16 0 a8 8 0 1 0 -16 0zM-8 -40 a8 8 0 1 0 16 0 a8 8 0 1 0 -16 0zM-8 60 a8 8 0 1 0 16 0 a8 8 0 1 0 -16 0zM-8 -60 a8 8 0 1 0 16 0 a8 8 0 1 0 -16 0zM-8 80 a8 8 0 1 0 16 0 a8 8 0 1 0 -16 0zM-8 -80 a8 8 0 1 0 16 0 a8 8 0 1 0 -16 0zM-8 100 a8 8 0 1 0 16 0 a8 8 0 1 0 -16 0zM-8 -100 a8 8 0 1 0 16 0 a8 8 0 1 0 -16 0zM-8 120 a8 8 0 1 0 16 0 a8 8 0 1 0 -16 0zM-8 -120 a8 8 0 1 0 16 0 a8 8 0 1 0 -16 0zM-8 140 a8 8 0 1 0 16 0 a8 8 0 1 0 -16 0zM-8 -140 a8 8 0 1 0 16 0 a8 8 0 1 0 -16 0zM-8 160 a8 8 0 1 0 16 0 a8 8 0 1 0 -16 0zM-8 -160 a8 8 0 1 0 16 0 a8 8 0 1 0 -16 0zM-8 180 a8 8 0 1 0 16 0 a8 8 0 1 0 -16 0zM-8 -180 a8 8 0 1 0 16 0 a8 8 0 1 0 -16 0zM-8 200 a8 8 0 1 0 16 0 a8 8 0 1 0 -16 0zM-8 -200 a8 8 0 1 0 16 0 a8 8 0 1 0 -16 0zM-8 220 a8 8 0 1 0 16 0 a8 8 0 1 0 -16 0zM-8 -220 a8 8 0 1 0 16 0 a8 8 0 1 0 -16 0zM-8 240 a8 8 0 1 0 16 0 a8 8 0 1 0 -16 0zM-8 -240 a8 8 0 1 0 16 0 a8 8 0 1 0 -16 0zM-8 260 a8 8 0 1 0 16 0 a8 8 0 1 0 -16 0zM-8 -260 a8 8 0 1 0 16 0 a8 8 0 1 0 -16 0zM-8 280 a8 8 0 1 0 16 0 a8 8 0 1 0 -16 0zM-8 -280 a8 8 0 1 0 16 0 a8 8 0 1 0 -16 0zM-8 300 a8 8 0 1 0 16 0 a8 8 0 1 0 -16 0zM-8 -300 a8 8 0 1 0 16 0 a8 8 0 1 0 -16 0z" id="SvgjsPath1051"></path><path d="M-8 0 a8 8 0 1 0 16 0 a8 8 0 1 0 -16 0zM-8 20 a8 8 0 1 0 16 0 a8 8 0 1 0 -16 0zM-8 -20 a8 8 0 1 0 16 0 a8 8 0 1 0 -16 0zM-8 40 a8 8 0 1 0 16 0 a8 8 0 1 0 -16 0zM-8 -40 a8 8 0 1 0 16 0 a8 8 0 1 0 -16 0zM-8 60 a8 8 0 1 0 16 0 a8 8 0 1 0 -16 0zM-8 -60 a8 8 0 1 0 16 0 a8 8 0 1 0 -16 0zM-8 80 a8 8 0 1 0 16 0 a8 8 0 1 0 -16 0zM-8 -80 a8 8 0 1 0 16 0 a8 8 0 1 0 -16 0zM-8 100 a8 8 0 1 0 16 0 a8 8 0 1 0 -16 0zM-8 -100 a8 8 0 1 0 16 0 a8 8 0 1 0 -16 0zM-8 120 a8 8 0 1 0 16 0 a8 8 0 1 0 -16 0zM-8 -120 a8 8 0 1 0 16 0 a8 8 0 1 0 -16 0zM-8 140 a8 8 0 1 0 16 0 a8 8 0 1 0 -16 0zM-8 -140 a8 8 0 1 0 16 0 a8 8 0 1 0 -16 0zM-8 160 a8 8 0 1 0 16 0 a8 8 0 1 0 -16 0zM-8 -160 a8 8 0 1 0 16 0 a8 8 0 1 0 -16 0zM-8 180 a8 8 0 1 0 16 0 a8 8 0 1 0 -16 0zM-8 -180 a8 8 0 1 0 16 0 a8 8 0 1 0 -16 0zM-8 200 a8 8 0 1 0 16 0 a8 8 0 1 0 -16 0zM-8 -200 a8 8 0 1 0 16 0 a8 8 0 1 0 -16 0zM-8 220 a8 8 0 1 0 16 0 a8 8 0 1 0 -16 0zM-8 -220 a8 8 0 1 0 16 0 a8 8 0 1 0 -16 0zM-8 240 a8 8 0 1 0 16 0 a8 8 0 1 0 -16 0zM-8 -240 a8 8 0 1 0 16 0 a8 8 0 1 0 -16 0zM-8 260 a8 8 0 1 0 16 0 a8 8 0 1 0 -16 0zM-8 -260 a8 8 0 1 0 16 0 a8 8 0 1 0 -16 0zM-8 280 a8 8 0 1 0 16 0 a8 8 0 1 0 -16 0zM-8 -280 a8 8 0 1 0 16 0 a8 8 0 1 0 -16 0zM-8 300 a8 8 0 1 0 16 0 a8 8 0 1 0 -16 0zM-8 -300 a8 8 0 1 0 16 0 a8 8 0 1 0 -16 0zM-8 320 a8 8 0 1 0 16 0 a8 8 0 1 0 -16 0zM-8 -320 a8 8 0 1 0 16 0 a8 8 0 1 0 -16 0z" id="SvgjsPath1060"></path></defs></svg>