<svg xmlns="http://www.w3.org/2000/svg" version="1.1" xmlns:xlink="http://www.w3.org/1999/xlink" xmlns:svgjs="http://svgjs.com/svgjs" width="1440" height="1599" preserveAspectRatio="none" viewBox="0 0 1440 1599"><g mask="url(&quot;#SvgjsMask1022&quot;)" fill="none"><rect width="1440" height="1599" x="0" y="0" fill="rgba(242, 245, 244, 1)"></rect><path d="M0 1327.32L10 1444.84L20 1538.3L30 1372.7L40 1195.64L50 1050.08L60 1076.14L70 1058.48L80 1055.51L90 1165.89L100 1067.64L110 1076.45L120 1093.92L130 1119.02L140 1171.6L150 1350.47L160 1393.97L170 1488.88L180 1477.49L190 1301.07L200 1497.15L210 1490.72L220 1381.36L230 1485.8L240 1410.65L250 1477.94L260 1552.74L270 1544.42L280 1373.62L290 1256.63L300 1089.03L310 1051.13L320 1032L330 955.92L340 1132.39L350 1195.12L360 1388.15L370 1572.68L380 1413.5L390 1254.11L400 1138.36L410 1310.06L420 1163.93L430 1032.68L440 1063.39L450 1230.27L460 1382.86L470 1417.55L480 1344.17L490 1408.78L500 1531.48L510 1436.28L520 1306.86L530 1149.74L540 1164.74L550 1003.31L560 1110.97L570 1195.4L580 1135.25L590 952.43L600 871.4L610 868.74L620 818L630 920.11L640 1004.96L650 972.75L660 851.07L670 695.37L680 770.43L690 675.9L700 551.62L710 731.14L720 546.71L730 537.07L740 643.88L750 507.7L760 426.58L770 450.87L780 419.94L790 420.56L800 383.69L810 559.63L820 744.51L830 863.52L840 775.12L850 886.48L860 1074.39L870 933.77L880 1068.23L890 1089.28L900 1208.28L910 1355.42L920 1446.88L930 1350.79L940 1296L950 1337.09L960 1360.98L970 1378.86L980 1263.71L990 1280.12L1000 1385.39L1010 1406.57L1020 1356.34L1030 1339.25L1040 1433.45L1050 1296.09L1060 1374.36L1070 1290.05L1080 1285.9L1090 1128.92L1100 1181.24L1110 1101.88L1120 1202.75L1130 1207.03L1140 1013.88L1150 1130.62L1160 952.47L1170 1040.8L1180 921.89L1190 724.55L1200 900.27L1210 729.37L1220 818.3L1230 918.52L1240 731.81L1250 731.94L1260 557.79L1270 598.81L1280 700.42L1290 766.02L1300 912.07L1310 779.92L1320 800.83L1330 959.86L1340 873.42L1350 722.25L1360 881.54L1370 978.46L1380 1126.6L1390 1130.36L1400 1096.26L1410 1048.01L1420 929.29L1430 859.16L1440 882.36" stroke="rgba(177, 174, 174, 1)" stroke-width="2"></path><path d="M0 1327.32L10 1444.84L20 1538.3L30 1372.7L40 1195.64L50 1050.08L60 1076.14L70 1058.48L80 1055.51L90 1165.89L100 1067.64L110 1076.45L120 1093.92L130 1119.02L140 1171.6L150 1350.47L160 1393.97L170 1488.88L180 1477.49L190 1301.07L200 1497.15L210 1490.72L220 1381.36L230 1485.8L240 1410.65L250 1477.94L260 1552.74L270 1544.42L280 1373.62L290 1256.63L300 1089.03L310 1051.13L320 1032L330 955.92L340 1132.39L350 1195.12L360 1388.15L370 1572.68L380 1413.5L390 1254.11L400 1138.36L410 1310.06L420 1163.93L430 1032.68L440 1063.39L450 1230.27L460 1382.86L470 1417.55L480 1344.17L490 1408.78L500 1531.48L510 1436.28L520 1306.86L530 1149.74L540 1164.74L550 1003.31L560 1110.97L570 1195.4L580 1135.25L590 952.43L600 871.4L610 868.74L620 818L630 920.11L640 1004.96L650 972.75L660 851.07L670 695.37L680 770.43L690 675.9L700 551.62L710 731.14L720 546.71L730 537.07L740 643.88L750 507.7L760 426.58L770 450.87L780 419.94L790 420.56L800 383.69L810 559.63L820 744.51L830 863.52L840 775.12L850 886.48L860 1074.39L870 933.77L880 1068.23L890 1089.28L900 1208.28L910 1355.42L920 1446.88L930 1350.79L940 1296L950 1337.09L960 1360.98L970 1378.86L980 1263.71L990 1280.12L1000 1385.39L1010 1406.57L1020 1356.34L1030 1339.25L1040 1433.45L1050 1296.09L1060 1374.36L1070 1290.05L1080 1285.9L1090 1128.92L1100 1181.24L1110 1101.88L1120 1202.75L1130 1207.03L1140 1013.88L1150 1130.62L1160 952.47L1170 1040.8L1180 921.89L1190 724.55L1200 900.27L1210 729.37L1220 818.3L1230 918.52L1240 731.81L1250 731.94L1260 557.79L1270 598.81L1280 700.42L1290 766.02L1300 912.07L1310 779.92L1320 800.83L1330 959.86L1340 873.42L1350 722.25L1360 881.54L1370 978.46L1380 1126.6L1390 1130.36L1400 1096.26L1410 1048.01L1420 929.29L1430 859.16L1440 882.36L1440 1599L0 1599z" fill="url(#SvgjsLinearGradient1023)"></path></g><defs><mask id="SvgjsMask1022"><rect width="1440" height="1599" fill="#ffffff"></rect></mask><linearGradient x1="50%" y1="0%" x2="50%" y2="100%" id="SvgjsLinearGradient1023"><stop stop-opacity="0.65" stop-color="rgba(177, 174, 174, 1)" offset="0"></stop><stop stop-opacity="0" stop-color="#ffffff" offset="0.8"></stop></linearGradient></defs></svg>