<svg xmlns="http://www.w3.org/2000/svg" version="1.1" xmlns:xlink="http://www.w3.org/1999/xlink" xmlns:svgjs="http://svgjs.com/svgjs" width="1440" height="1200" preserveAspectRatio="none" viewBox="0 0 1440 1200"><g mask="url(&quot;#SvgjsMask1038&quot;)" fill="none"><rect width="1440" height="1200" x="0" y="0" fill="rgba(242, 245, 244, 1)"></rect><path d="M0 40.1L10 44.84L20 116.31L30 60.19L40 190.94L50 227.97L60 246.93L70 181.05L80 50.85L90 85.03L100 88.19L110 209.52L120 84.3L130 59.06L140 202.44L150 255.13L160 246.52L170 305.7L180 266.38L190 345.07L200 210.9L210 151.65L220 254.6L230 266.08L240 393.95L250 469.37L260 383.48L270 328.5L280 435.28L290 450.68L300 340.07L310 242.01L320 326.46L330 399.24L340 545.65L350 597.04L360 518.42L370 611.36L380 697.75L390 653L400 773.87L410 636.17L420 695.61L430 710.58L440 661.13L450 778.83L460 775.87L470 630.22L480 751.09L490 862.49L500 714.91L510 765.71L520 650.72L530 509.65L540 391.31L550 283.14L560 217.24L570 149.59L580 238.73L590 290.7L600 408.4L610 353.12L620 469.85L630 334.29L640 467.69L650 353.68L660 423.91L670 415.9L680 290.44L690 225.39L700 152.94L710 204.48L720 138.28L730 279.83L740 425.94L750 490.53L760 347.46L770 420.22L780 342.7L790 260.18L800 220.42L810 154.81L820 235.1L830 280.71L840 145.21L850 160.92L860 290.93L870 202.08L880 218.03L890 351.15L900 364.14L910 486.67L920 400.73L930 427.46L940 425.39L950 458.27L960 595.42L970 527.35L980 632.94L990 669.24L1000 568.09L1010 533.37L1020 567.19L1030 487.3L1040 630.7L1050 617.92L1060 682.48L1070 597.91L1080 616.98L1090 700.8L1100 736.96L1110 829.94L1120 698.34L1130 743.95L1140 607.71L1150 643.74L1160 685.25L1170 700.7L1180 663.92L1190 580.3L1200 606.37L1210 462.19L1220 525.07L1230 499.83L1240 583.6L1250 612.57L1260 620.66L1270 627.39L1280 485.75L1290 456.51L1300 478.08L1310 544.26L1320 403.99L1330 514.65L1340 488.53L1350 551.71L1360 461.34L1370 311.99L1380 423.43L1390 508.3L1400 511.26L1410 430.6L1420 290.36L1430 282.71L1440 302.87" stroke="rgba(177, 174, 174, 1)" stroke-width="2"></path><path d="M0 40.1L10 44.84L20 116.31L30 60.19L40 190.94L50 227.97L60 246.93L70 181.05L80 50.85L90 85.03L100 88.19L110 209.52L120 84.3L130 59.06L140 202.44L150 255.13L160 246.52L170 305.7L180 266.38L190 345.07L200 210.9L210 151.65L220 254.6L230 266.08L240 393.95L250 469.37L260 383.48L270 328.5L280 435.28L290 450.68L300 340.07L310 242.01L320 326.46L330 399.24L340 545.65L350 597.04L360 518.42L370 611.36L380 697.75L390 653L400 773.87L410 636.17L420 695.61L430 710.58L440 661.13L450 778.83L460 775.87L470 630.22L480 751.09L490 862.49L500 714.91L510 765.71L520 650.72L530 509.65L540 391.31L550 283.14L560 217.24L570 149.59L580 238.73L590 290.7L600 408.4L610 353.12L620 469.85L630 334.29L640 467.69L650 353.68L660 423.91L670 415.9L680 290.44L690 225.39L700 152.94L710 204.48L720 138.28L730 279.83L740 425.94L750 490.53L760 347.46L770 420.22L780 342.7L790 260.18L800 220.42L810 154.81L820 235.1L830 280.71L840 145.21L850 160.92L860 290.93L870 202.08L880 218.03L890 351.15L900 364.14L910 486.67L920 400.73L930 427.46L940 425.39L950 458.27L960 595.42L970 527.35L980 632.94L990 669.24L1000 568.09L1010 533.37L1020 567.19L1030 487.3L1040 630.7L1050 617.92L1060 682.48L1070 597.91L1080 616.98L1090 700.8L1100 736.96L1110 829.94L1120 698.34L1130 743.95L1140 607.71L1150 643.74L1160 685.25L1170 700.7L1180 663.92L1190 580.3L1200 606.37L1210 462.19L1220 525.07L1230 499.83L1240 583.6L1250 612.57L1260 620.66L1270 627.39L1280 485.75L1290 456.51L1300 478.08L1310 544.26L1320 403.99L1330 514.65L1340 488.53L1350 551.71L1360 461.34L1370 311.99L1380 423.43L1390 508.3L1400 511.26L1410 430.6L1420 290.36L1430 282.71L1440 302.87L1440 1200L0 1200z" fill="url(#SvgjsLinearGradient1039)"></path></g><defs><mask id="SvgjsMask1038"><rect width="1440" height="1200" fill="#ffffff"></rect></mask><linearGradient x1="50%" y1="0%" x2="50%" y2="100%" id="SvgjsLinearGradient1039"><stop stop-opacity="0.65" stop-color="rgba(177, 174, 174, 1)" offset="0"></stop><stop stop-opacity="0" stop-color="#ffffff" offset="0.8"></stop></linearGradient></defs></svg>