<svg xmlns="http://www.w3.org/2000/svg" version="1.1" xmlns:xlink="http://www.w3.org/1999/xlink" xmlns:svgjs="http://svgjs.com/svgjs" width="1440" height="1000" preserveAspectRatio="none" viewBox="0 0 1440 1000"><g mask="url(&quot;#SvgjsMask1034&quot;)" fill="none"><rect width="1440" height="1000" x="0" y="0" fill="rgba(242, 245, 244, 1)"></rect><path d="M0 838.4L10 784.38L20 770.56L30 718.44L40 819.57L50 715.09L60 659.25L70 623.83L80 526.36L90 484.02L100 597.14L110 694.29L120 725.48L130 613.55L140 689.09L150 633.71L160 563.95L170 643.51L180 674.9L190 716.2L200 802.57L210 717.88L220 652.84L230 563.84L240 671.17L250 722.8L260 763.03L270 700.7L280 789.49L290 874.44L300 874.4L310 918.73L320 809.85L330 854.63L340 940.14L350 986.49L360 883.74L370 853.5L380 918.69L390 837.36L400 844.58L410 837.53L420 834.37L430 914.52L440 932.93L450 832.35L460 767.77L470 779.52L480 814.16L490 731.35L500 855.64L510 871.87L520 972.54L530 878.75L540 899.13L550 925.51L560 943.4L570 820.44L580 939.51L590 824.64L600 699.7L610 676.14L620 573.97L630 586.49L640 518.26L650 596.72L660 481.74L670 519.9L680 602.85L690 690.2L700 773.68L710 894.24L720 993.34L730 896.04L740 962.48L750 885.5L760 999.23L770 945.84L780 957.64L790 992.76L800 985.16L810 996.77L820 975.25L830 900.76L840 879.2L850 794.45L860 885.95L870 857.81L880 793.61L890 696.65L900 646L910 692.38L920 652.98L930 712.4L940 715.52L950 790.76L960 724.69L970 782.81L980 749.92L990 741.05L1000 864.72L1010 979.23L1020 982.71L1030 890.38L1040 853.45L1050 965.62L1060 896.56L1070 960.34L1080 912.57L1090 880.26L1100 855.3L1110 868.76L1120 751.02L1130 658.63L1140 573.14L1150 557.63L1160 624.41L1170 501.31L1180 448.42L1190 459.92L1200 335.82L1210 376.56L1220 253.91L1230 333.14L1240 343.45L1250 294.11L1260 357.54L1270 331.15L1280 271.58L1290 219.99L1300 279.11L1310 360.35L1320 336.77L1330 414.06L1340 441.23L1350 440.6L1360 458L1370 564.72L1380 526.2L1390 404.91L1400 474.67L1410 356.16L1420 432.85L1430 446.06L1440 360.75" stroke="rgba(177, 174, 174, 1)" stroke-width="2"></path><path d="M0 838.4L10 784.38L20 770.56L30 718.44L40 819.57L50 715.09L60 659.25L70 623.83L80 526.36L90 484.02L100 597.14L110 694.29L120 725.48L130 613.55L140 689.09L150 633.71L160 563.95L170 643.51L180 674.9L190 716.2L200 802.57L210 717.88L220 652.84L230 563.84L240 671.17L250 722.8L260 763.03L270 700.7L280 789.49L290 874.44L300 874.4L310 918.73L320 809.85L330 854.63L340 940.14L350 986.49L360 883.74L370 853.5L380 918.69L390 837.36L400 844.58L410 837.53L420 834.37L430 914.52L440 932.93L450 832.35L460 767.77L470 779.52L480 814.16L490 731.35L500 855.64L510 871.87L520 972.54L530 878.75L540 899.13L550 925.51L560 943.4L570 820.44L580 939.51L590 824.64L600 699.7L610 676.14L620 573.97L630 586.49L640 518.26L650 596.72L660 481.74L670 519.9L680 602.85L690 690.2L700 773.68L710 894.24L720 993.34L730 896.04L740 962.48L750 885.5L760 999.23L770 945.84L780 957.64L790 992.76L800 985.16L810 996.77L820 975.25L830 900.76L840 879.2L850 794.45L860 885.95L870 857.81L880 793.61L890 696.65L900 646L910 692.38L920 652.98L930 712.4L940 715.52L950 790.76L960 724.69L970 782.81L980 749.92L990 741.05L1000 864.72L1010 979.23L1020 982.71L1030 890.38L1040 853.45L1050 965.62L1060 896.56L1070 960.34L1080 912.57L1090 880.26L1100 855.3L1110 868.76L1120 751.02L1130 658.63L1140 573.14L1150 557.63L1160 624.41L1170 501.31L1180 448.42L1190 459.92L1200 335.82L1210 376.56L1220 253.91L1230 333.14L1240 343.45L1250 294.11L1260 357.54L1270 331.15L1280 271.58L1290 219.99L1300 279.11L1310 360.35L1320 336.77L1330 414.06L1340 441.23L1350 440.6L1360 458L1370 564.72L1380 526.2L1390 404.91L1400 474.67L1410 356.16L1420 432.85L1430 446.06L1440 360.75L1440 1000L0 1000z" fill="url(#SvgjsLinearGradient1035)"></path></g><defs><mask id="SvgjsMask1034"><rect width="1440" height="1000" fill="#ffffff"></rect></mask><linearGradient x1="50%" y1="0%" x2="50%" y2="100%" id="SvgjsLinearGradient1035"><stop stop-opacity="0.65" stop-color="rgba(177, 174, 174, 1)" offset="0"></stop><stop stop-opacity="0" stop-color="#ffffff" offset="0.8"></stop></linearGradient></defs></svg>